<svg width="96" height="96" viewBox="0 0 96 96" fill="none" xmlns="http://www.w3.org/2000/svg">
<path d="M79.2193 50.7399C78.4477 50.7399 77.8222 51.3654 77.8222 52.137C77.8222 53.1152 77.0265 53.9109 76.0483 53.9109C75.0703 53.9109 74.2743 53.1152 74.2743 52.137C74.2743 51.3652 73.6488 50.7399 72.8773 50.7399C72.1057 50.7399 71.4802 51.3654 71.4802 52.137C71.4802 54.6559 73.5296 56.7051 76.0483 56.7051C78.567 56.7051 80.6163 54.6557 80.6163 52.137C80.6163 51.3651 79.9908 50.7399 79.2193 50.7399Z" fill="#54D2E5"/>
<path d="M92.3333 50.9681L88.401 49.7085C87.8974 49.5471 87.5004 49.1451 87.3394 48.633C86.5106 45.9981 85.26 43.5244 83.6222 41.2804C82.8757 40.2576 82.0457 39.2809 81.1389 38.3511C81.7191 35.8061 82.0344 32.9259 81.9936 30.4376C81.9351 26.8779 81.2237 24.7901 79.8189 24.0544C79.0624 23.6576 76.7599 22.4524 64.2973 28.1573C64.0022 28.2923 63.7266 28.4586 63.4714 28.6491C62.6312 28.4233 61.7724 28.2145 60.9084 28.027C60.8044 28.0043 60.6971 27.9842 60.5923 27.9621C61.6022 25.7559 62.1919 23.3599 62.3027 20.8864C62.3372 20.1154 61.7404 19.4625 60.9694 19.4282C60.2004 19.39 59.5455 19.9903 59.5112 20.7613C59.3291 24.8284 57.642 28.6551 54.7609 31.5364C53.0394 33.2578 51.0238 34.5083 48.8756 35.2958C45.1502 34.773 41.3556 34.773 37.6301 35.2958C35.4818 34.5083 33.4663 33.2578 31.7449 31.5364C28.671 28.4625 26.9781 24.3756 26.9781 20.0284C26.9781 15.681 28.671 11.5943 31.7449 8.52039C34.8187 5.44633 38.9059 3.75339 43.2529 3.75339C47.5999 3.75339 51.687 5.44633 54.7609 8.52039C55.9961 9.75564 57.0169 11.1653 57.7948 12.7097C58.1419 13.399 58.9821 13.6765 59.6711 13.3292C60.3604 12.9823 60.6377 12.1421 60.2906 11.4531C59.3788 9.64201 58.1831 7.9907 56.7369 6.54433C53.1352 2.94264 48.3465 0.959076 43.2531 0.959076C38.1596 0.959076 33.3709 2.94264 29.7692 6.54433C26.1675 10.1462 24.1839 14.9348 24.1839 20.0282C24.1839 25.1216 26.1675 29.9104 29.7692 33.5121C30.8081 34.551 31.9384 35.4445 33.1339 36.193C33.1343 36.193 33.1346 36.1928 33.135 36.1928C32.2663 36.4185 31.4042 36.672 30.5516 36.957C29.8198 37.2017 29.4249 37.9931 29.6696 38.7251C29.9141 39.4569 30.7059 39.8518 31.4376 39.6073C39.0568 37.0601 47.4493 37.0601 55.0686 39.6073C55.2156 39.6564 55.3648 39.6797 55.5116 39.6797C56.0961 39.6797 56.6409 39.3099 56.8365 38.7251C57.0812 37.9933 56.6863 37.2017 55.9545 36.957C55.1019 36.672 54.2398 36.4183 53.3711 36.1928C53.3715 36.1928 53.3719 36.193 53.3723 36.193C54.5679 35.4445 55.698 34.551 56.7369 33.5121C57.6561 32.593 58.4674 31.5893 59.1718 30.5226C59.5569 30.5974 59.9392 30.6758 60.3159 30.7575C60.8177 30.8664 61.3172 30.9834 61.8122 31.1063C61.7966 31.167 61.7807 31.2276 61.7678 31.2893C61.0864 34.5227 61.1306 37.3824 61.8992 39.7886C62.5899 41.9514 63.8366 43.7036 65.6042 44.9968C67.6875 46.5208 70.2026 47.1791 72.4809 47.1791C74.1956 47.1791 75.7764 46.806 76.9374 46.1484C78.2507 45.4046 79.3509 43.8373 80.2219 41.4842C80.6244 41.9541 81.006 42.4354 81.3656 42.9281C82.8238 44.9258 83.937 47.1274 84.6743 49.4715C85.1072 50.8483 86.1819 51.9317 87.549 52.3699L91.4812 53.6295C92.5131 53.9601 93.2063 54.9098 93.2063 55.9931V62.5135C93.2063 63.5968 92.5131 64.5465 91.4812 64.8771L85.1458 66.9064C84.1322 67.2313 83.2744 67.9279 82.7304 68.868C80.2414 73.1696 76.3281 76.7293 71.0985 79.4483C70.4944 79.7627 70.0759 80.325 69.9499 80.9914L67.9207 91.7357C67.8647 92.0318 67.6054 92.2465 67.3041 92.2465H60.7065C60.4052 92.2465 60.1459 92.0316 60.0898 91.7357L58.9659 85.7978C58.7447 84.6295 57.6489 83.8534 56.4696 84.0321C53.6276 84.4618 50.6993 84.6795 47.7662 84.6795C45.5841 84.6795 43.4299 84.5578 41.3631 84.3176C40.2202 84.1862 39.1556 84.9653 38.9421 86.0936L37.8741 91.7357C37.818 92.0318 37.5587 92.2465 37.2574 92.2465H30.6598C30.3585 92.2465 30.0992 92.0316 30.0424 91.7312L28.0886 81.5833C27.9628 80.9295 27.5522 80.3736 26.9614 80.058C18.0469 75.2991 13.335 67.3483 13.335 57.0658C13.335 51.8706 14.4716 47.2766 16.7132 43.4111C18.8049 39.8038 21.8601 36.8213 25.7936 34.5459C26.4615 34.1595 26.6897 33.3049 26.3034 32.6368C25.9172 31.969 25.0626 31.7411 24.3945 32.127C16.7672 36.5393 12.1669 43.3463 10.9003 51.9919V51.9917C10.7659 51.9795 10.6313 51.9679 10.4972 51.954C10.5216 51.0212 10.3528 50.08 9.98531 49.1665C9.17475 47.1516 7.50975 45.6973 5.74331 45.4616C4.35131 45.2753 3.02663 45.8663 2.10731 47.0809C0.774375 48.8423 0.991688 50.2361 1.4085 51.0953C2.11219 52.5452 3.921 53.5708 6.92269 54.2156C6.84019 54.3392 6.74944 54.4633 6.65006 54.588C4.8765 56.8123 2.787 57.3041 1.43025 57.3505C0.636 57.3773 0 58.015 0 58.8098V58.8165C0 59.6005 0.618562 60.2398 1.40175 60.2756C1.50206 60.2803 1.60688 60.2828 1.716 60.2828C3.43275 60.2828 6.18806 59.6496 8.83519 56.3303C9.25312 55.8064 9.59363 55.2536 9.85538 54.6825C10.119 54.7123 10.3723 54.7378 10.6149 54.7603C10.6149 54.7598 10.6149 54.7594 10.6151 54.7588C10.5675 55.516 10.5411 56.2841 10.5411 57.0658C10.5411 62.8836 11.928 68.0708 14.6631 72.484C17.1849 76.5527 20.7956 79.8842 25.3984 82.3896L27.2977 92.2551C27.6032 93.8691 29.0171 95.0406 30.6598 95.0406H37.2574C38.9001 95.0406 40.314 93.8691 40.6194 92.2551L41.5851 87.1536C43.5906 87.366 45.6669 87.4736 47.766 87.4736C50.646 87.4736 53.5226 87.273 56.3261 86.877L57.3441 92.2555C57.6497 93.8695 59.0636 95.0408 60.7061 95.0408H67.3037C68.9464 95.0408 70.3603 93.8693 70.6659 92.2547L72.6416 81.7939C78.2231 78.8425 82.4303 74.9653 85.1486 70.2673C85.3446 69.9287 85.6463 69.6803 85.998 69.5676L92.3333 67.5383C94.5264 66.8353 96 64.8161 96 62.5131V55.9928C96 53.6899 94.5264 51.6707 92.3333 50.9681ZM78.9896 34.3637C78.4519 38.9623 77.0094 42.8961 75.5601 43.7169C73.9127 44.6501 70.1093 44.8303 67.2536 42.7414C64.3946 40.65 63.4431 36.8891 64.5015 31.8653C64.5015 31.8651 64.5015 31.8651 64.5015 31.8651C64.6078 31.3605 64.9663 30.924 65.4604 30.6979C72.4549 27.4961 76.4874 26.449 77.9856 26.449C78.2117 26.449 78.3801 26.4728 78.4922 26.5166C78.9422 26.9963 79.5324 29.7227 78.9896 34.3637ZM3.92269 49.8752C3.77812 49.5771 4.11938 49.053 4.33575 48.7669C4.67869 48.3139 4.99462 48.2213 5.23331 48.2213C5.28375 48.2213 5.33081 48.2254 5.37394 48.2312C6.01631 48.3169 6.91631 49.0238 7.39313 50.209C7.50544 50.488 7.65131 50.9501 7.68544 51.5265C5.75137 51.1258 4.24875 50.5481 3.92269 49.8752Z" fill="#54D2E5"/>
<path d="M44.6096 18.4269V13.4274C46.3337 13.5506 46.9742 14.3387 47.5652 14.3387C48.3041 14.3387 48.6489 13.4029 48.6489 12.9349C48.6489 11.7279 46.2844 11.2108 44.6096 11.1615V10.4962C44.6096 10.2007 44.2401 9.92981 43.8707 9.92981C43.4518 9.92981 43.1563 10.2007 43.1563 10.4962V11.2104C40.8165 11.4568 38.4767 12.6883 38.4767 15.7916C38.4767 18.9442 40.9397 19.8309 43.1563 20.619V26.4069C40.644 26.2099 39.9791 24.4858 39.1663 24.4858C38.5506 24.4858 38.0334 25.2986 38.0334 25.8898C38.0334 27.0966 40.1023 28.7467 43.1563 28.7961V29.5596C43.1563 29.8551 43.452 30.126 43.8707 30.126C44.2403 30.126 44.6096 29.8551 44.6096 29.5596V28.7222C47.2697 28.3526 49.0922 26.6779 49.0922 23.6484C49.0922 20.2989 46.7524 19.215 44.6096 18.4269ZM43.3041 17.9591C41.9987 17.4666 40.9397 16.9494 40.9397 15.5456C40.9397 14.2648 41.9248 13.6491 43.3041 13.4767V17.9591V17.9591ZM44.4617 26.3576V21.1609C45.6684 21.678 46.629 22.3676 46.629 23.9192C46.629 25.3234 45.7916 26.1114 44.4617 26.3576Z" fill="#54D2E5"/>
</svg>
